# This file uses centimeters as units for non-parametric coordinates.

mtllib cube.mtl
g default
v -0.500000 -0.500000 0.120119
v 0.500000 -0.500000 0.120119
v -0.500000 0.500000 0.120119
v 0.500000 0.500000 0.120119
v -0.500000 0.500000 -0.879881
v 0.500000 0.500000 -0.879881
v -0.500000 -0.500000 -0.879881
v 0.500000 -0.500000 -0.879881
vt 0.001439 -1.991535
vt 0.998561 -1.991535
vt 0.998561 -0.994413
vt 0.001439 -0.994413
vt 0.998561 0.002709
vt 0.001439 0.002709
vt 0.998561 0.999832
vt 0.001439 0.999832
vt 0.998561 1.996954
vt 0.001439 1.996954
vt 1.995683 -1.991535
vt 1.995683 -0.994413
vt -0.995683 -1.991535
vt -0.995683 -0.994413
vn 0.000000 0.000000 1.000000
vn 0.000000 0.000000 1.000000
vn 0.000000 0.000000 1.000000
vn 0.000000 0.000000 1.000000
vn 0.000000 1.000000 0.000000
vn 0.000000 1.000000 0.000000
vn 0.000000 1.000000 0.000000
vn 0.000000 1.000000 0.000000
vn 0.000000 0.000000 -1.000000
vn 0.000000 0.000000 -1.000000
vn 0.000000 0.000000 -1.000000
vn 0.000000 0.000000 -1.000000
vn 0.000000 -1.000000 0.000000
vn 0.000000 -1.000000 0.000000
vn 0.000000 -1.000000 0.000000
vn 0.000000 -1.000000 0.000000
vn 1.000000 0.000000 0.000000
vn 1.000000 0.000000 0.000000
vn 1.000000 0.000000 0.000000
vn 1.000000 0.000000 0.000000
vn -1.000000 0.000000 0.000000
vn -1.000000 0.000000 0.000000
vn -1.000000 0.000000 0.000000
vn -1.000000 0.000000 0.000000
s off
g pCube2
usemtl initialShadingGroup
f 1/1/1 2/2/2 4/3/3 3/4/4
f 3/4/5 4/3/6 6/5/7 5/6/8
f 5/6/9 6/5/10 8/7/11 7/8/12
f 7/8/13 8/7/14 2/9/15 1/10/16
f 2/2/17 8/11/18 6/12/19 4/3/20
f 7/13/21 1/1/22 3/4/23 5/14/24
